<?xml version="1.0" encoding="utf-8"?>
<!-- Generator: Adobe Illustrator 23.1.1, SVG Export Plug-In . SVG Version: 6.00 Build 0)  -->
<svg version="1.1" id="Ebene_1" xmlns="http://www.w3.org/2000/svg" xmlns:xlink="http://www.w3.org/1999/xlink" x="0px" y="0px"
	 viewBox="0 0 415.9 368" style="enable-background:new 0 0 415.9 368;" xml:space="preserve">
<style type="text/css">
	.st0{fill:#1E142B;stroke:#1D1D1B;stroke-width:0.7879;stroke-miterlimit:10;}
	.st1{fill:#FFFFFF;}
</style>
<title>LOgo_neu</title>
<rect class="st0" width="415.9" height="368"/>
<path class="st1" d="M207.1,353.8c-54.2,0-108.3,0-162.4,0c-1.6,0.2-3.2-0.8-3.9-2.3c-10-17.4-20-34.8-30.1-52.2
	c-0.6-0.8-0.6-1.9,0-2.7c4.1-7.1,8.2-14.1,12.3-21.2c18.6-32.2,37.2-64.4,55.8-96.6l57.2-99c12.8-22,25.5-44,38.1-66.1
	c0.5-1.1,1.6-1.7,2.8-1.6c20,0,40.1,0,60.1,0c1.5-0.2,2.9,0.7,3.5,2c21.5,37.3,43,74.7,64.6,112c10.2,17.7,20.5,35.4,30.7,53.1
	l67.8,117.3c0.7,0.9,0.7,2.1,0,3c-10.2,17.6-20.4,35.2-30.5,52.8c-0.5,1-1.5,1.6-2.6,1.5L207.1,353.8L207.1,353.8z M396.1,300.9
	H130.5c0.3-0.6,0.4-0.9,0.6-1.2c4.6-7.9,9.1-15.9,13.8-23.8c7.8-13.4,15.6-26.8,23.4-40.2c2.8-4.9,5.5-9.8,8.3-14.6
	c8.8-15.3,17.7-30.7,26.6-46c0.6-0.8,0.6-2,0-2.8c-8.1-14-16.3-28.1-24.4-42.1c-0.6-1.1-1.3-2.2-2.1-3.5l-128,221.6h318
	c1.5,0.1,2.9-0.7,3.5-2c6.9-12,13.8-24,20.7-35.9C392.5,307.3,394.2,304.3,396.1,300.9L396.1,300.9z M181.6,17.9l132.9,230.2h-145
	c-1.3-0.2-2.5,0.5-3.1,1.7c-8.3,14.5-16.6,29-25,43.5c-0.3,0.6-0.6,1.1-1,2h255.7c-0.4-0.8-0.6-1.2-0.9-1.7
	c-11.7-20.2-23.3-40.5-35-60.7L276.7,88.4l-39.8-69c-0.5-0.8-0.9-1.4-2.1-1.4C217.2,17.9,199.6,17.9,181.6,17.9z M176.6,115.2
	c0.4,0.6,0.5,0.8,0.7,1.1l11.3,19.5c20.2,35,40.4,70,60.6,105c0.5,1.2,1.7,1.9,3,1.8c16.2-0.1,32.5,0,48.8,0h3.7l-128-221.6
	c-0.4,0.7-0.6,1.1-0.9,1.4L120.5,118l-55.6,96.3l-47.7,82.5c-0.5,0.8-0.5,1.9,0.1,2.7c8.5,14.7,17,29.4,25.5,44.1
	c0.3,0.5,0.6,0.9,1,1.5L176.6,115.2z M207.1,179.3l-36.4,63h72.8L207.1,179.3z"/>
<path class="st1" d="M130.7,306.7h5.1l-12.1,23.8c-4.7,9.3-11.2,12.1-17.9,12.1c-1.7,0-3.4-0.3-5-0.8l2.6-3.6
	c1.2,0.5,2.6,0.7,3.9,0.7c4.5,0,8.1-1.8,11.5-8.6L130.7,306.7z"/>
<path class="st1" d="M149.5,306.8l-10.9,21.1c-4,7.8-1.9,11.1,3.3,11.1c5.8,0,11.2-3.4,15.3-11.1l11.1-21.1h5.1l-11,20.8
	c-5.7,10.7-14.2,15.1-22.6,15.1c-7.9,0-11.8-4.1-6.3-14.9l10.7-21L149.5,306.8z"/>
<path class="st1" d="M165.6,336.7c2.3,1.6,5,2.4,7.7,2.3c5.1,0,9.4-2.4,11.3-5.9c1.8-3.3,0.7-5.1-3.5-7c-5.3-2-7.6-5-4.9-10
	c3-5.6,10.3-9.7,17.9-9.7c4,0,6.5,0.9,7.7,1.8l-3.5,3.8c-1.9-1.2-4.2-1.8-6.5-1.7c-5.4,0-9,2.9-10.3,5.3c-1.8,3.3-0.3,5,4.1,6.9
	c5.3,2.3,7.1,5.2,4.3,10.3c-2.9,5.4-9.9,10-18.9,10c-3.7,0-7.2-1-8.7-2.2L165.6,336.7z"/>
<path class="st1" d="M216.3,310.9h-11.9l2.2-3.9l29,0.1l-2.2,3.9h-11.9l-17.5,31.2h-5L216.3,310.9z"/>
<path class="st1" d="M275,324.5c-7.2,12-18.9,18.2-28.6,18.2c-10.1,0-13.1-7.1-7-17.6c6.5-11.2,18.5-18.6,28.9-18.6
	C278.9,306.6,281.3,314.1,275,324.5z M244.8,325c-4.3,7.5-3.8,14.1,4,14.1s16.1-6.5,20.8-14.4c4.2-7,4.5-14.4-3.8-14.4
	S249.3,317.3,244.8,325z"/>
<path class="st1" d="M270.8,342.2l21.1-35h5.5l1.4,17.9c0.3,3.8,0.3,7.5-0.1,11.3l0.1,0c2.4-4.6,4.9-8.8,8.3-14.3l9.2-14.7h4.7
	l-21.7,34.9h-4.9l-1.3-17.5c-0.3-3.9-0.3-7.9,0-11.8h-0.2c-2.4,4.5-4.9,8.7-8.4,14.5l-9,14.7L270.8,342.2z"/>
<path class="st1" d="M337.6,326.1h-14.8l-7.9,12.5h16.4l-2.4,3.7h-21.2l21.9-34.9l20.8,0.1l-2.5,3.9h-15.8l-7,11.1H340L337.6,326.1z
	"/>
<path class="st1" d="M253,59.5l2.6,4.4l-26.7,1.6c-10.4,0.7-16-3.6-19.4-9.3c-0.9-1.4-1.5-3-1.8-4.7l4.5,0.4
	c0.2,1.3,0.7,2.6,1.4,3.7c2.3,3.9,5.6,6.1,13.3,5.6L253,59.5z"/>
<path class="st1" d="M262.4,75.8L238.7,77c-8.8,0.5-10.6,4-8,8.5c2.9,5,8.6,8,17.3,7.6l23.8-1l2.6,4.5l-23.5,1
	c-12.1,0.5-20.2-4.7-24.4-11.9c-4-6.8-2.5-12.3,9.7-12.9l23.6-1.4L262.4,75.8z"/>
<path class="st1" d="M244.7,104.8c-0.2,2.7,0.5,5.5,1.9,7.8c2.6,4.4,6.8,6.9,10.8,6.8c3.7-0.1,4.8-2,4.2-6.6
	c-0.9-5.6,0.5-9.1,6.2-9.3c6.3-0.2,13.6,4,17.4,10.6c2,3.5,2.5,6,2.4,7.6l-5-1.1c0.1-2.3-0.6-4.6-1.8-6.5c-2.7-4.6-7-6.3-9.8-6.2
	c-3.8,0.1-4.4,2.2-3.9,7c0.7,5.8-0.9,8.8-6.8,8.9c-6.1,0.2-13.6-3.5-18.1-11.3c-1.9-3.2-2.8-6.8-2.5-8.6L244.7,104.8z"/>
<path class="st1" d="M292.5,135.5l-6-10.3l4.5-0.1l14.5,25.1H301l-6-10.3l-35.8,0.6l-2.5-4.3L292.5,135.5z"/>
<path class="st1" d="M310.4,193.1c-13.9-0.2-25.2-7.1-30.1-15.5c-5.1-8.7-0.5-14.8,11.7-14.9c13-0.1,25.4,6.5,30.6,15.5
	C327.9,187.4,322.6,193.3,310.4,193.1z M294.7,167.3c-8.6,0-14,3.9-10.1,10.6s13.7,10.6,22.9,10.7c8.1,0.1,14.7-3.3,10.5-10.5
	S303.6,167.3,294.7,167.3L294.7,167.3z"/>
<path class="st1" d="M293,198.3l40.9,0.6l2.7,4.7l-14.7,10.2c-3.1,2.2-6.4,4-9.8,5.6l0.1,0.1c5.2-0.2,10.1-0.2,16.5,0l17.4,0.5
	l2.4,4.1l-41.1-1.2l-2.5-4.3l14.5-10c3.2-2.3,6.6-4.3,10.1-5.9l-0.1-0.1c-5.1,0.1-10,0.2-16.8,0l-17.2-0.3L293,198.3z"/>
<path class="st1" d="M340.6,248l-7.5-12.7l-14.7-0.5l8.2,14.1l-4.4-0.2l-10.6-18.3l41.1,1.3l10.4,18l-4.6-0.2l-7.9-13.6l-13.2-0.5
	l7.5,12.8L340.6,248z"/>
<path class="st1" d="M44.9,261.9l2.5-4.4l14.8,22.2c5.7,8.6,5,15.7,1.7,21.5c-0.8,1.5-1.9,2.8-3.2,3.9l-1.9-4c1-0.8,1.9-1.8,2.5-3
	c2.2-3.9,2.4-7.9-1.8-14.3L44.9,261.9z"/>
<path class="st1" d="M54.1,245.6l13,19.9c4.8,7.4,8.8,7.1,11.3,2.6c2.8-5,2.6-11.4-2.1-18.8l-12.9-20l2.6-4.5l12.6,19.8
	c6.5,10.2,6.1,19.8,2,27.1c-3.9,6.9-9.4,8.3-16-1.9l-13-19.7L54.1,245.6z"/>
<path class="st1" d="M88.1,246.3c2.5-1.2,4.5-3.2,5.8-5.6c2.5-4.4,2.5-9.4,0.4-12.7c-2-3.2-4.1-3.2-7.8-0.4
	c-4.4,3.6-8.1,4.1-11.2-0.7c-3.4-5.3-3.4-13.8,0.4-20.4c2-3.5,4-5.2,5.4-5.8l1.6,4.9c-2,1.1-3.7,2.8-4.7,4.8
	c-2.7,4.6-1.9,9.2-0.4,11.6c2,3.2,4.2,2.7,8-0.2c4.6-3.5,8-3.6,11.1,1.4c3.2,5.2,3.8,13.5-0.7,21.4c-1.8,3.2-4.4,5.8-6.2,6.5
	L88.1,246.3z"/>
<path class="st1" d="M90.7,189.6l-5.9,10.3l-2.4-3.8l14.4-25.2l2.3,3.9l-5.9,10.4l18.5,30.6l-2.5,4.4L90.7,189.6z"/>
<path class="st1" d="M131.5,145.2c6.9,12.1,6.5,25.4,1.7,33.9c-5,8.8-12.6,7.9-18.8-2.6c-6.6-11.2-7.1-25.2-1.9-34.2
	C117.8,132.9,125.5,134.6,131.5,145.2z M117,171.7c4.3,7.4,10.4,10.2,14.2,3.5c3.8-6.8,2.3-17.2-2.2-25.2c-4-7.1-10.3-11-14.4-3.8
	S112.5,164,117,171.7L117,171.7z"/>
<path class="st1" d="M144.7,157.6l-20-35.6l2.7-4.8l16.3,7.6c3.4,1.6,6.7,3.5,9.7,5.7v-0.1c-2.8-4.4-5.3-8.6-8.3-14.2l-8.3-15.3
	l2.3-4.1l19.6,36.1l-2.4,4.3l-15.9-7.5c-3.6-1.6-7-3.6-10.2-5.8v0.2c2.7,4.3,5.1,8.5,8.5,14.5l8.4,15.1L144.7,157.6z"/>
<path class="st1" d="M163.7,91.5l-7.3,12.9l6.9,13l8.1-14.2l2,3.9L163,125.5l-19.5-36.2l10.3-18.1l2.1,4l-7.8,13.8l6.2,11.6
	l7.3-12.9L163.7,91.5z"/>
</svg>
