<svg id="Ebene_1" data-name="Ebene 1" xmlns="http://www.w3.org/2000/svg" viewBox="0 0 397.16 348.2"><defs><style>.cls-1{fill:#fff;}</style></defs><title>Just_one_logo_white2</title><path class="cls-1" d="M199,345.52q-81.23,0-162.43.05a3.85,3.85,0,0,1-3.87-2.27q-15-26.13-30.09-52.16a2.28,2.28,0,0,1,0-2.66c4.13-7.06,8.2-14.15,12.29-21.24q27.9-48.31,55.8-96.65l57.16-99Q147,38.57,166,5.49a2.72,2.72,0,0,1,2.77-1.56q30.06.06,60.1,0a3.44,3.44,0,0,1,3.49,2q32.26,56,64.62,112,15.35,26.55,30.69,53.09,33.87,58.65,67.75,117.29a2.55,2.55,0,0,1,0,3q-15.3,26.35-30.49,52.77a2.56,2.56,0,0,1-2.6,1.48q-81.69,0-163.36,0Zm189-52.88H122.37c.3-.6.45-.93.64-1.25,4.58-7.94,9.14-15.89,13.75-23.82,7.79-13.4,15.63-26.77,23.41-40.18,2.82-4.85,5.46-9.79,8.26-14.65q13.24-23,26.59-46a2.45,2.45,0,0,0,0-2.84q-12.21-21.06-24.36-42.15c-.63-1.1-1.31-2.17-2.1-3.47L40.59,339.85H43q157.79,0,315.55,0a3.47,3.47,0,0,0,3.47-2c6.85-12,13.79-23.95,20.7-35.91C384.42,299,386.12,296,388,292.64ZM173.48,9.63,306.39,239.84h-3q-71,0-142,0a3,3,0,0,0-3.07,1.71q-12.45,21.78-25,43.48c-.32.56-.6,1.14-1,2h255.7c-.39-.75-.62-1.24-.89-1.71q-17.51-30.34-35-60.68L268.58,80.07q-19.95-34.51-39.87-69c-.49-.84-.89-1.43-2.07-1.43C209.08,9.65,191.53,9.63,173.48,9.63Zm-4.95,97.24c.35.55.54.84.72,1.15l11.26,19.46q30.3,52.47,60.56,105a3,3,0,0,0,3,1.78c16.25-.06,32.5,0,48.75,0h3.69l-128-221.61c-.42.7-.64,1.07-.85,1.44l-55.19,95.6L56.87,206Q33,247.28,9.15,288.53a2.29,2.29,0,0,0,.09,2.68q12.77,22,25.48,44.09c.26.45.57.88,1,1.55ZM199.08,171l-36.43,63h72.79Z"/><path class="cls-1" d="M122.64,298.45h5.12L115.7,322.29c-4.69,9.27-11.19,12.09-17.87,12.09a14.07,14.07,0,0,1-5-.83l2.56-3.65a10.4,10.4,0,0,0,3.89.67c4.51,0,8.07-1.8,11.51-8.65Z"/><path class="cls-1" d="M141.39,298.5l-10.86,21.1c-4,7.84-1.88,11.14,3.3,11.15,5.75,0,11.21-3.4,15.28-11.12l11.1-21.07h5.15l-11,20.75c-5.67,10.72-14.23,15.07-22.6,15.07-7.92,0-11.82-4.06-6.28-14.9l10.74-21Z"/><path class="cls-1" d="M157.54,328.4a12.8,12.8,0,0,0,7.73,2.26c5.09,0,9.38-2.4,11.3-5.91,1.78-3.26.72-5.13-3.53-7-5.26-2.05-7.59-5.05-4.92-10.05,3-5.57,10.29-9.72,17.94-9.7,4,0,6.47.88,7.72,1.79l-3.46,3.77a11.31,11.31,0,0,0-6.52-1.72c-5.36,0-9,2.91-10.28,5.34-1.79,3.33-.29,5,4.07,6.86,5.33,2.31,7.1,5.18,4.28,10.32-2.94,5.35-9.86,10-18.94,10-3.71,0-7.25-1-8.66-2.2Z"/><path class="cls-1" d="M208.17,302.64l-11.9,0,2.17-3.94,29,.08-2.24,3.94-11.93,0-17.51,31.2h-5Z"/><path class="cls-1" d="M266.9,316.22c-7.18,11.95-18.89,18.21-28.6,18.21-10.07,0-13.07-7.06-7-17.59,6.47-11.21,18.46-18.61,28.86-18.58C270.79,298.3,273.17,305.77,266.9,316.22Zm-30.2.52c-4.33,7.45-3.75,14.07,4,14.08s16.1-6.5,20.82-14.4c4.17-7,4.54-14.37-3.8-14.39S241.19,309,236.7,316.74Z"/><path class="cls-1" d="M262.67,333.88l21.13-35,5.46,0,1.41,17.89a60,60,0,0,1-.12,11.27l.15-.05c2.4-4.61,4.9-8.83,8.27-14.27L308.14,299h4.7l-21.73,34.89h-4.93l-1.31-17.53a68,68,0,0,1,0-11.77l-.21.05c-2.42,4.46-4.87,8.69-8.4,14.5l-9,14.74Z"/><path class="cls-1" d="M329.5,317.77l-14.8,0-7.86,12.45h16.37l-2.37,3.69H299.63L321.54,299l20.79.06-2.47,3.85-15.78,0-7,11.12,14.83,0Z"/><path class="cls-1" d="M244.91,51.26l2.57,4.43-26.67,1.59c-10.36.62-16.07-3.56-19.44-9.34a14.31,14.31,0,0,1-1.79-4.7l4.45.37a10.43,10.43,0,0,0,1.38,3.7c2.27,3.89,5.62,6.06,13.27,5.59Z"/><path class="cls-1" d="M254.31,67.48l-23.7,1.26c-8.8.46-10.57,4-8,8.47,2.89,5,8.58,8,17.31,7.59l23.79-1,2.58,4.46-23.46,1c-12.12.5-20.19-4.69-24.41-11.92-4-6.85-2.45-12.27,9.7-12.94L251.72,63Z"/><path class="cls-1" d="M236.63,96.5a12.8,12.8,0,0,0,1.94,7.82c2.56,4.4,6.81,6.89,10.8,6.78,3.71-.11,4.8-2,4.24-6.56-.88-5.57.53-9.1,6.2-9.31,6.31-.23,13.58,4,17.41,10.61,2,3.48,2.51,6,2.35,7.57l-5-1.09a11.35,11.35,0,0,0-1.8-6.5c-2.69-4.64-7-6.28-9.8-6.19-3.77.13-4.42,2.25-3.87,7,.69,5.77-.9,8.75-6.75,8.9-6.11.16-13.57-3.5-18.14-11.34-1.87-3.21-2.82-6.76-2.46-8.59Z"/><path class="cls-1" d="M284.4,127.25l-6-10.29,4.49-.11,14.54,25.08-4.52,0-6-10.32-35.78.6-2.52-4.32Z"/><path class="cls-1" d="M302.27,184.82c-13.94-.18-25.25-7.14-30.15-15.53-5.07-8.69-.49-14.84,11.68-14.89,12.94-.06,25.37,6.56,30.59,15.56C319.71,179.14,314.46,185,302.27,184.82ZM286.59,159c-8.61,0-14,3.85-10.13,10.55s13.72,10.64,22.93,10.73c8.14.08,14.7-3.32,10.51-10.54S295.54,159,286.59,159Z"/><path class="cls-1" d="M284.88,190.06l40.85.63,2.73,4.73-14.74,10.23a59.76,59.76,0,0,1-9.79,5.58l.12.1c5.19-.24,10.09-.21,16.49,0l17.39.46,2.36,4.07-41.08-1.18-2.49-4.27,14.49-10a67.83,67.83,0,0,1,10.15-5.95l-.15-.15c-5.07.15-10,.16-16.76,0l-17.25-.3Z"/><path class="cls-1" d="M332.48,239.67,325,226.88l-14.71-.52,8.24,14.15-4.39-.19L303.5,222l41.15,1.34,10.43,18-4.57-.19-7.91-13.65L329.44,227l7.45,12.82Z"/><path class="cls-1" d="M36.71,253.59l2.54-4.44L54,271.4c5.74,8.65,5,15.69,1.69,21.5a14.36,14.36,0,0,1-3.16,3.91l-1.92-4a10.21,10.21,0,0,0,2.5-3c2.23-3.92,2.42-7.91-1.84-14.28Z"/><path class="cls-1" d="M46,237.31l13,19.86c4.83,7.38,8.77,7.13,11.33,2.63,2.84-5,2.58-11.43-2.13-18.78L55.34,221l2.56-4.47,12.62,19.8c6.52,10.23,6.09,19.81,2,27.09-3.91,6.89-9.36,8.29-16-1.88l-13-19.71Z"/><path class="cls-1" d="M80,238a12.76,12.76,0,0,0,5.79-5.61c2.51-4.42,2.54-9.35.43-12.74-2-3.16-4.11-3.17-7.8-.37-4.37,3.56-8.13,4.11-11.16-.68-3.38-5.34-3.38-13.75.42-20.39,2-3.49,4-5.2,5.36-5.83l1.57,4.87a11.33,11.33,0,0,0-4.71,4.82c-2.66,4.65-1.9,9.24-.43,11.58,2,3.19,4.17,2.7,8-.16,4.64-3.49,8-3.61,11.09,1.37,3.21,5.2,3.79,13.49-.69,21.38-1.83,3.23-4.43,5.83-6.19,6.45Z"/><path class="cls-1" d="M82.57,181.27l-5.9,10.33-2.36-3.83,14.38-25.18L91,166.48,85.1,176.84l18.49,30.63-2.47,4.35Z"/><path class="cls-1" d="M123.36,136.89c6.85,12.14,6.52,25.41,1.72,33.86-5,8.76-12.59,7.89-18.75-2.61-6.55-11.16-7.07-25.23-1.91-34.26C109.69,124.66,117.36,126.28,123.36,136.89Zm-14.45,26.52c4.34,7.45,10.38,10.21,14.22,3.46s2.3-17.21-2.25-25.21c-4-7.08-10.25-11-14.39-3.79S104.4,155.69,108.91,163.41Z"/><path class="cls-1" d="M136.63,149.29l-20-35.63,2.71-4.75,16.26,7.61a59.55,59.55,0,0,1,9.74,5.66l0-.15c-2.82-4.37-5.26-8.63-8.33-14.24l-8.34-15.27,2.33-4.08,19.63,36.11-2.44,4.29-15.9-7.52a68.07,68.07,0,0,1-10.25-5.78l0,.2c2.68,4.31,5.15,8.53,8.46,14.47l8.41,15.06Z"/><path class="cls-1" d="M155.6,83.21l-7.32,12.86,6.94,13,8.09-14.23,2.05,3.89-10.48,18.44L135.37,80.89l10.31-18.06,2.13,4L140,80.58l6.22,11.6,7.34-12.88Z"/></svg>